<svg id="visual" viewBox="0 0 960 300" width="960" height="300" xmlns="http://www.w3.org/2000/svg" xmlns:xlink="http://www.w3.org/1999/xlink" version="1.1"><path d="M0 75L22.8 75.2C45.7 75.3 91.3 75.7 137 83.3C182.7 91 228.3 106 274 108C319.7 110 365.3 99 411.2 95C457 91 503 94 548.8 98.8C594.7 103.7 640.3 110.3 686 109.3C731.7 108.3 777.3 99.7 823 100.7C868.7 101.7 914.3 112.3 937.2 117.7L960 123L960 0L937.2 0C914.3 0 868.7 0 823 0C777.3 0 731.7 0 686 0C640.3 0 594.7 0 548.8 0C503 0 457 0 411.2 0C365.3 0 319.7 0 274 0C228.3 0 182.7 0 137 0C91.3 0 45.7 0 22.8 0L0 0Z" fill="#e10510"></path><path d="M0 78L22.8 78.3C45.7 78.7 91.3 79.3 137 81.7C182.7 84 228.3 88 274 86.7C319.7 85.3 365.3 78.7 411.2 76C457 73.3 503 74.7 548.8 78.7C594.7 82.7 640.3 89.3 686 89.2C731.7 89 777.3 82 823 79.8C868.7 77.7 914.3 80.3 937.2 81.7L960 83L960 0L937.2 0C914.3 0 868.7 0 823 0C777.3 0 731.7 0 686 0C640.3 0 594.7 0 548.8 0C503 0 457 0 411.2 0C365.3 0 319.7 0 274 0C228.3 0 182.7 0 137 0C91.3 0 45.7 0 22.8 0L0 0Z" fill="#c10210"></path><path d="M0 78L22.8 73.5C45.7 69 91.3 60 137 54.5C182.7 49 228.3 47 274 48C319.7 49 365.3 53 411.2 55.5C457 58 503 59 548.8 61.7C594.7 64.3 640.3 68.7 686 66.5C731.7 64.3 777.3 55.7 823 53.8C868.7 52 914.3 57 937.2 59.5L960 62L960 0L937.2 0C914.3 0 868.7 0 823 0C777.3 0 731.7 0 686 0C640.3 0 594.7 0 548.8 0C503 0 457 0 411.2 0C365.3 0 319.7 0 274 0C228.3 0 182.7 0 137 0C91.3 0 45.7 0 22.8 0L0 0Z" fill="#a1010f"></path><path d="M0 42L22.8 44.5C45.7 47 91.3 52 137 54.5C182.7 57 228.3 57 274 52.3C319.7 47.7 365.3 38.3 411.2 37.3C457 36.3 503 43.7 548.8 47C594.7 50.3 640.3 49.7 686 46.2C731.7 42.7 777.3 36.3 823 37.5C868.7 38.7 914.3 47.3 937.2 51.7L960 56L960 0L937.2 0C914.3 0 868.7 0 823 0C777.3 0 731.7 0 686 0C640.3 0 594.7 0 548.8 0C503 0 457 0 411.2 0C365.3 0 319.7 0 274 0C228.3 0 182.7 0 137 0C91.3 0 45.7 0 22.8 0L0 0Z" fill="#82010d"></path><path d="M0 19L22.8 21.3C45.7 23.7 91.3 28.3 137 30.8C182.7 33.3 228.3 33.7 274 32.5C319.7 31.3 365.3 28.7 411.2 28.8C457 29 503 32 548.8 33.7C594.7 35.3 640.3 35.7 686 35C731.7 34.3 777.3 32.7 823 28.8C868.7 25 914.3 19 937.2 16L960 13L960 0L937.2 0C914.3 0 868.7 0 823 0C777.3 0 731.7 0 686 0C640.3 0 594.7 0 548.8 0C503 0 457 0 411.2 0C365.3 0 319.7 0 274 0C228.3 0 182.7 0 137 0C91.3 0 45.7 0 22.8 0L0 0Z" fill="#640207"></path></svg>