<svg id="visual" viewBox="0 0 960 300" width="960" height="300" xmlns="http://www.w3.org/2000/svg" xmlns:xlink="http://www.w3.org/1999/xlink" version="1.1"><path d="M0 168L26.7 181C53.3 194 106.7 220 160 231.8C213.3 243.7 266.7 241.3 320 225.8C373.3 210.3 426.7 181.7 480 174C533.3 166.3 586.7 179.7 640 182.2C693.3 184.7 746.7 176.3 800 185C853.3 193.7 906.7 219.3 933.3 232.2L960 245L960 0L933.3 0C906.7 0 853.3 0 800 0C746.7 0 693.3 0 640 0C586.7 0 533.3 0 480 0C426.7 0 373.3 0 320 0C266.7 0 213.3 0 160 0C106.7 0 53.3 0 26.7 0L0 0Z" fill="#1d1b1b"></path><path d="M0 202L26.7 192.8C53.3 183.7 106.7 165.3 160 158.8C213.3 152.3 266.7 157.7 320 159.3C373.3 161 426.7 159 480 159.7C533.3 160.3 586.7 163.7 640 164C693.3 164.3 746.7 161.7 800 153.7C853.3 145.7 906.7 132.3 933.3 125.7L960 119L960 0L933.3 0C906.7 0 853.3 0 800 0C746.7 0 693.3 0 640 0C586.7 0 533.3 0 480 0C426.7 0 373.3 0 320 0C266.7 0 213.3 0 160 0C106.7 0 53.3 0 26.7 0L0 0Z" fill="#311a19"></path><path d="M0 161L26.7 154.2C53.3 147.3 106.7 133.7 160 124.8C213.3 116 266.7 112 320 115.8C373.3 119.7 426.7 131.3 480 136.8C533.3 142.3 586.7 141.7 640 139.5C693.3 137.3 746.7 133.7 800 125.5C853.3 117.3 906.7 104.7 933.3 98.3L960 92L960 0L933.3 0C906.7 0 853.3 0 800 0C746.7 0 693.3 0 640 0C586.7 0 533.3 0 480 0C426.7 0 373.3 0 320 0C266.7 0 213.3 0 160 0C106.7 0 53.3 0 26.7 0L0 0Z" fill="#431616"></path><path d="M0 89L26.7 91C53.3 93 106.7 97 160 97.3C213.3 97.7 266.7 94.3 320 96.2C373.3 98 426.7 105 480 108.7C533.3 112.3 586.7 112.7 640 103.8C693.3 95 746.7 77 800 71.8C853.3 66.7 906.7 74.3 933.3 78.2L960 82L960 0L933.3 0C906.7 0 853.3 0 800 0C746.7 0 693.3 0 640 0C586.7 0 533.3 0 480 0C426.7 0 373.3 0 320 0C266.7 0 213.3 0 160 0C106.7 0 53.3 0 26.7 0L0 0Z" fill="#540f11"></path><path d="M0 65L26.7 63.5C53.3 62 106.7 59 160 58.2C213.3 57.3 266.7 58.7 320 56.8C373.3 55 426.7 50 480 48.3C533.3 46.7 586.7 48.3 640 50.8C693.3 53.3 746.7 56.7 800 55C853.3 53.3 906.7 46.7 933.3 43.3L960 40L960 0L933.3 0C906.7 0 853.3 0 800 0C746.7 0 693.3 0 640 0C586.7 0 533.3 0 480 0C426.7 0 373.3 0 320 0C266.7 0 213.3 0 160 0C106.7 0 53.3 0 26.7 0L0 0Z" fill="#640207"></path></svg>