<svg id="visual" viewBox="0 0 960 300" width="960" height="300" xmlns="http://www.w3.org/2000/svg" xmlns:xlink="http://www.w3.org/1999/xlink" version="1.1"><path d="M0 208L26.7 207.7C53.3 207.3 106.7 206.7 160 201C213.3 195.3 266.7 184.7 320 188C373.3 191.3 426.7 208.7 480 209.8C533.3 211 586.7 196 640 197.2C693.3 198.3 746.7 215.7 800 221.5C853.3 227.3 906.7 221.7 933.3 218.8L960 216L960 0L933.3 0C906.7 0 853.3 0 800 0C746.7 0 693.3 0 640 0C586.7 0 533.3 0 480 0C426.7 0 373.3 0 320 0C266.7 0 213.3 0 160 0C106.7 0 53.3 0 26.7 0L0 0Z" fill="#3e3030"></path><path d="M0 161L26.7 157.7C53.3 154.3 106.7 147.7 160 145.2C213.3 142.7 266.7 144.3 320 142.7C373.3 141 426.7 136 480 134.3C533.3 132.7 586.7 134.3 640 143.3C693.3 152.3 746.7 168.7 800 168.8C853.3 169 906.7 153 933.3 145L960 137L960 0L933.3 0C906.7 0 853.3 0 800 0C746.7 0 693.3 0 640 0C586.7 0 533.3 0 480 0C426.7 0 373.3 0 320 0C266.7 0 213.3 0 160 0C106.7 0 53.3 0 26.7 0L0 0Z" fill="#352a2a"></path><path d="M0 158L26.7 158.3C53.3 158.7 106.7 159.3 160 151.8C213.3 144.3 266.7 128.7 320 127.8C373.3 127 426.7 141 480 146.3C533.3 151.7 586.7 148.3 640 141.7C693.3 135 746.7 125 800 117.7C853.3 110.3 906.7 105.7 933.3 103.3L960 101L960 0L933.3 0C906.7 0 853.3 0 800 0C746.7 0 693.3 0 640 0C586.7 0 533.3 0 480 0C426.7 0 373.3 0 320 0C266.7 0 213.3 0 160 0C106.7 0 53.3 0 26.7 0L0 0Z" fill="#2d2525"></path><path d="M0 118L26.7 112C53.3 106 106.7 94 160 93.3C213.3 92.7 266.7 103.3 320 100.7C373.3 98 426.7 82 480 74.7C533.3 67.3 586.7 68.7 640 73.5C693.3 78.3 746.7 86.7 800 90.3C853.3 94 906.7 93 933.3 92.5L960 92L960 0L933.3 0C906.7 0 853.3 0 800 0C746.7 0 693.3 0 640 0C586.7 0 533.3 0 480 0C426.7 0 373.3 0 320 0C266.7 0 213.3 0 160 0C106.7 0 53.3 0 26.7 0L0 0Z" fill="#252020"></path><path d="M0 33L26.7 37.5C53.3 42 106.7 51 160 55C213.3 59 266.7 58 320 57C373.3 56 426.7 55 480 57.8C533.3 60.7 586.7 67.3 640 66.5C693.3 65.7 746.7 57.3 800 50.8C853.3 44.3 906.7 39.7 933.3 37.3L960 35L960 0L933.3 0C906.7 0 853.3 0 800 0C746.7 0 693.3 0 640 0C586.7 0 533.3 0 480 0C426.7 0 373.3 0 320 0C266.7 0 213.3 0 160 0C106.7 0 53.3 0 26.7 0L0 0Z" fill="#1d1b1b"></path></svg>