<svg id="visual" viewBox="0 0 960 300" width="960" height="300" xmlns="http://www.w3.org/2000/svg" xmlns:xlink="http://www.w3.org/1999/xlink" version="1.1"><path d="M0 183L22.8 182.8C45.7 182.7 91.3 182.3 137 187.7C182.7 193 228.3 204 274 203.8C319.7 203.7 365.3 192.3 411.2 187C457 181.7 503 182.3 548.8 186.3C594.7 190.3 640.3 197.7 686 197.7C731.7 197.7 777.3 190.3 823 186.7C868.7 183 914.3 183 937.2 183L960 183L960 301L937.2 301C914.3 301 868.7 301 823 301C777.3 301 731.7 301 686 301C640.3 301 594.7 301 548.8 301C503 301 457 301 411.2 301C365.3 301 319.7 301 274 301C228.3 301 182.7 301 137 301C91.3 301 45.7 301 22.8 301L0 301Z" fill="#e10510"></path><path d="M0 239L22.8 234.7C45.7 230.3 91.3 221.7 137 216.2C182.7 210.7 228.3 208.3 274 209.3C319.7 210.3 365.3 214.7 411.2 217.8C457 221 503 223 548.8 220.5C594.7 218 640.3 211 686 212.5C731.7 214 777.3 224 823 226.7C868.7 229.3 914.3 224.7 937.2 222.3L960 220L960 301L937.2 301C914.3 301 868.7 301 823 301C777.3 301 731.7 301 686 301C640.3 301 594.7 301 548.8 301C503 301 457 301 411.2 301C365.3 301 319.7 301 274 301C228.3 301 182.7 301 137 301C91.3 301 45.7 301 22.8 301L0 301Z" fill="#c10210"></path><path d="M0 230L22.8 230.8C45.7 231.7 91.3 233.3 137 232.5C182.7 231.7 228.3 228.3 274 225.8C319.7 223.3 365.3 221.7 411.2 224.8C457 228 503 236 548.8 238.7C594.7 241.3 640.3 238.7 686 238.5C731.7 238.3 777.3 240.7 823 241.5C868.7 242.3 914.3 241.7 937.2 241.3L960 241L960 301L937.2 301C914.3 301 868.7 301 823 301C777.3 301 731.7 301 686 301C640.3 301 594.7 301 548.8 301C503 301 457 301 411.2 301C365.3 301 319.7 301 274 301C228.3 301 182.7 301 137 301C91.3 301 45.7 301 22.8 301L0 301Z" fill="#a1010f"></path><path d="M0 264L22.8 262.2C45.7 260.3 91.3 256.7 137 254.7C182.7 252.7 228.3 252.3 274 250.7C319.7 249 365.3 246 411.2 246.7C457 247.3 503 251.7 548.8 252.5C594.7 253.3 640.3 250.7 686 250.7C731.7 250.7 777.3 253.3 823 255.3C868.7 257.3 914.3 258.7 937.2 259.3L960 260L960 301L937.2 301C914.3 301 868.7 301 823 301C777.3 301 731.7 301 686 301C640.3 301 594.7 301 548.8 301C503 301 457 301 411.2 301C365.3 301 319.7 301 274 301C228.3 301 182.7 301 137 301C91.3 301 45.7 301 22.8 301L0 301Z" fill="#82010d"></path><path d="M0 274L22.8 274.3C45.7 274.7 91.3 275.3 137 277.3C182.7 279.3 228.3 282.7 274 281C319.7 279.3 365.3 272.7 411.2 272.7C457 272.7 503 279.3 548.8 281C594.7 282.7 640.3 279.3 686 278.3C731.7 277.3 777.3 278.7 823 280.3C868.7 282 914.3 284 937.2 285L960 286L960 301L937.2 301C914.3 301 868.7 301 823 301C777.3 301 731.7 301 686 301C640.3 301 594.7 301 548.8 301C503 301 457 301 411.2 301C365.3 301 319.7 301 274 301C228.3 301 182.7 301 137 301C91.3 301 45.7 301 22.8 301L0 301Z" fill="#640207"></path></svg>